<svg xmlns="http://www.w3.org/2000/svg" viewBox="0 0 800 800" width="800" height="800">
  <path d="M637.0,284.0 L459.0,262.0 L457.0,298.0 L452.0,330.0 L444.0,362.0 L428.0,406.0 L412.0,438.0 L388.0,476.0 L368.0,502.0 L348.0,524.0 L314.0,556.0 L286.0,578.0 L253.0,600.0 L225.0,616.0 L162.0,645.0 L110.0,663.0 L70.0,673.0 L70.0,676.0 L233.0,720.0 L289.0,702.0 L351.0,677.0 L401.0,652.0 L446.0,624.0 L488.0,592.0 L531.0,550.0 L565.0,507.0 L588.0,469.0 L609.0,423.0 L624.0,376.0 L634.0,324.0 Z" fill="#000"/>
  <path d="M733.0,230.0 L669.0,232.0 L678.0,245.0 L678.0,259.0 L670.0,270.0 L657.0,275.0 L650.0,274.0 L648.0,316.0 L642.0,357.0 L634.0,390.0 L621.0,429.0 L607.0,461.0 L592.0,489.0 L567.0,527.0 L548.0,551.0 L500.0,599.0 L477.0,618.0 L443.0,642.0 L401.0,667.0 L365.0,685.0 L316.0,706.0 L289.0,715.0 L289.0,717.0 L733.0,692.0 Z" fill="#000"/>
  <path d="M446.0,105.0 L448.0,116.0 L454.0,126.0 L462.0,133.0 L473.0,139.0 L501.0,148.0 L641.0,185.0 L671.0,187.0 L698.0,181.0 L714.0,175.0 L723.0,167.0 L725.0,163.0 L725.0,156.0 L723.0,152.0 L716.0,146.0 L708.0,143.0 L661.0,136.0 L513.0,96.0 L485.0,86.0 L461.0,86.0 L451.0,93.0 Z" fill="#000"/>
  <path d="M647.0,230.0 L630.0,229.0 L624.0,227.0 L631.0,217.0 L632.0,208.0 L630.0,200.0 L621.0,189.0 L614.0,186.0 L608.0,186.0 L602.0,189.0 L597.0,197.0 L598.0,210.0 L601.0,216.0 L609.0,224.0 L608.0,227.0 L471.0,215.0 L458.0,218.0 L452.0,222.0 L447.0,231.0 L447.0,239.0 L452.0,246.0 L460.0,250.0 L641.0,271.0 L635.0,261.0 L633.0,251.0 L636.0,241.0 L645.0,232.0 L647.0,232.0 Z" fill="#000"/>
  <path d="M493.0,156.0 L485.0,162.0 L483.0,167.0 L483.0,175.0 L486.0,183.0 L492.0,190.0 L497.0,193.0 L504.0,194.0 L509.0,192.0 L514.0,187.0 L516.0,179.0 L513.0,167.0 L507.0,160.0 L499.0,156.0 Z" fill="#000"/>
  <path d="M638.0,203.0 L648.0,208.0 L658.0,208.0 L665.0,203.0 L667.0,200.0 L667.0,195.0 L650.0,195.0 L640.0,193.0 Z" fill="#000"/>
  <path d="M521.0,171.0 L532.0,177.0 L539.0,176.0 L546.0,170.0 L546.0,168.0 L527.0,163.0 L522.0,163.0 Z" fill="#000"/>
</svg>
