<svg xmlns="http://www.w3.org/2000/svg" viewBox="0 0 800 800" width="800" height="800">
  <path d="M426.0,180.0 L422.0,182.0 L418.0,203.0 L413.0,202.0 L413.0,187.0 L402.0,189.0 L385.0,197.0 L339.0,249.0 L322.0,260.0 L315.0,267.0 L313.0,274.0 L314.0,281.0 L323.0,292.0 L331.0,295.0 L340.0,294.0 L349.0,287.0 L357.0,265.0 L405.0,225.0 L415.0,224.0 L416.0,218.0 L421.0,219.0 L422.0,227.0 L424.0,229.0 L443.0,230.0 L443.0,234.0 L389.0,286.0 L370.0,311.0 L372.0,316.0 L372.0,335.0 L374.0,346.0 L381.0,363.0 L390.0,376.0 L410.0,392.0 L472.0,423.0 L472.0,427.0 L457.0,449.0 L432.0,492.0 L432.0,496.0 L446.0,503.0 L447.0,508.0 L432.0,509.0 L424.0,507.0 L419.0,521.0 L419.0,537.0 L421.0,543.0 L427.0,547.0 L519.0,547.0 L539.0,545.0 L547.0,539.0 L547.0,535.0 L543.0,530.0 L525.0,522.0 L497.0,515.0 L495.0,513.0 L495.0,509.0 L498.0,507.0 L510.0,482.0 L545.0,421.0 L549.0,406.0 L548.0,396.0 L538.0,385.0 L523.0,373.0 L465.0,338.0 L445.0,337.0 L444.0,327.0 L449.0,326.0 L470.0,332.0 L518.0,279.0 L523.0,280.0 L525.0,290.0 L529.0,297.0 L537.0,297.0 L537.0,304.0 L540.0,309.0 L553.0,323.0 L624.0,333.0 L629.0,335.0 L643.0,347.0 L650.0,350.0 L660.0,347.0 L667.0,340.0 L670.0,333.0 L669.0,324.0 L666.0,319.0 L659.0,314.0 L644.0,311.0 L629.0,311.0 L582.0,296.0 L569.0,289.0 L569.0,285.0 L573.0,283.0 L573.0,279.0 L570.0,271.0 L567.0,239.0 L563.0,224.0 L551.0,205.0 L537.0,192.0 L537.0,190.0 L534.0,190.0 L526.0,180.0 L507.0,175.0 L483.0,172.0 L450.0,175.0 Z" fill="#000"/>
  <path d="M714.0,536.0 L710.0,530.0 L701.0,526.0 L676.0,525.0 L614.0,539.0 L553.0,543.0 L548.0,549.0 L542.0,552.0 L509.0,555.0 L427.0,555.0 L421.0,553.0 L414.0,546.0 L308.0,548.0 L262.0,541.0 L229.0,540.0 L210.0,547.0 L205.0,553.0 L204.0,560.0 L211.0,570.0 L227.0,579.0 L247.0,584.0 L283.0,587.0 L481.0,587.0 L566.0,585.0 L597.0,582.0 L598.0,591.0 L594.0,592.0 L592.0,598.0 L588.0,600.0 L575.0,601.0 L568.0,593.0 L561.0,593.0 L561.0,595.0 L571.0,604.0 L574.0,609.0 L576.0,620.0 L599.0,615.0 L602.0,621.0 L609.0,628.0 L618.0,632.0 L629.0,633.0 L644.0,627.0 L650.0,620.0 L653.0,613.0 L653.0,600.0 L645.0,588.0 L644.0,582.0 L679.0,569.0 L698.0,559.0 L713.0,545.0 Z" fill="#000"/>
  <path d="M416.0,404.0 L398.0,393.0 L383.0,379.0 L373.0,364.0 L366.0,346.0 L362.0,348.0 L313.0,409.0 L242.0,410.0 L237.0,415.0 L233.0,415.0 L232.0,409.0 L218.0,403.0 L205.0,403.0 L199.0,408.0 L173.0,462.0 L166.0,485.0 L166.0,498.0 L168.0,502.0 L173.0,505.0 L178.0,505.0 L185.0,502.0 L195.0,494.0 L221.0,467.0 L226.0,467.0 L229.0,470.0 L299.0,470.0 L345.0,467.0 L378.0,442.0 L416.0,406.0 Z" fill="#000"/>
  <path d="M560.0,86.0 L544.0,91.0 L535.0,97.0 L528.0,105.0 L521.0,123.0 L521.0,132.0 L529.0,135.0 L529.0,139.0 L523.0,141.0 L523.0,157.0 L529.0,172.0 L539.0,184.0 L539.0,187.0 L542.0,187.0 L551.0,194.0 L564.0,199.0 L579.0,199.0 L589.0,195.0 L601.0,185.0 L610.0,170.0 L616.0,150.0 L638.0,151.0 L647.0,149.0 L653.0,144.0 L653.0,138.0 L649.0,134.0 L636.0,129.0 L619.0,127.0 L613.0,108.0 L599.0,93.0 L579.0,86.0 Z" fill="#000"/>
  <path d="M314.0,640.0 L314.0,642.0 L435.0,658.0 L586.0,680.0 L614.0,679.0 L691.0,662.0 L691.0,660.0 L571.0,649.0 L567.0,649.0 L548.0,659.0 L536.0,660.0 L519.0,656.0 L504.0,644.0 L355.0,631.0 L342.0,631.0 Z" fill="#000"/>
  <path d="M518.0,597.0 L509.0,606.0 L505.0,618.0 L506.0,629.0 L512.0,641.0 L519.0,647.0 L532.0,652.0 L543.0,652.0 L557.0,646.0 L565.0,638.0 L569.0,627.0 L569.0,618.0 L563.0,607.0 L552.0,597.0 L542.0,593.0 L528.0,593.0 Z" fill="#000"/>
  <path d="M282.0,594.0 L275.0,598.0 L269.0,606.0 L267.0,614.0 L268.0,623.0 L278.0,636.0 L290.0,640.0 L299.0,639.0 L308.0,634.0 L313.0,628.0 L316.0,620.0 L315.0,611.0 L309.0,600.0 L293.0,593.0 Z" fill="#000"/>
  <path d="M313.0,594.0 L320.0,605.0 L322.0,615.0 L344.0,610.0 L351.0,619.0 L363.0,624.0 L378.0,621.0 L386.0,614.0 L389.0,608.0 L389.0,595.0 L339.0,595.0 L322.0,599.0 L318.0,594.0 Z" fill="#000"/>
  <path d="M317.0,375.0 L306.0,370.0 L163.0,374.0 L160.0,375.0 L160.0,377.0 L315.0,381.0 Z" fill="#000"/>
  <path d="M133.0,597.0 L133.0,599.0 L249.0,613.0 L249.0,609.0 L238.0,602.0 Z" fill="#000"/>
  <path d="M74.0,557.0 L74.0,559.0 L187.0,568.0 L186.0,563.0 L177.0,557.0 Z" fill="#000"/>
  <path d="M337.0,355.0 L329.0,352.0 L208.0,357.0 L208.0,359.0 L334.0,362.0 Z" fill="#000"/>
  <path d="M163.0,456.0 L84.0,459.0 L82.0,462.0 L159.0,467.0 Z" fill="#000"/>
  <path d="M203.0,588.0 L203.0,586.0 L194.0,579.0 L125.0,580.0 L125.0,582.0 Z" fill="#000"/>
</svg>
